<svg width="620" height="654" viewBox="0 0 620 654" fill="none" xmlns="http://www.w3.org/2000/svg">
<g clip-path="url(#clip0_1_13)">
<path d="M470.431 538.873C472.01 538.247 474.02 541.776 475.375 541.148C476.726 540.522 475.2 536.8 476.436 531.943C476.658 531.068 478.063 525.549 480.372 525.296C484.75 524.816 488.531 543.676 495.073 543.514C496.509 543.479 498.23 542.524 502.694 542.263C504.47 542.159 505.435 542.238 505.936 542.873C506.648 543.775 505.807 545.01 504.96 548.063C503.69 552.642 504.691 553.08 503.373 556.497C502.394 559.034 501.328 560.125 501.87 560.916C502.636 562.036 505.265 560.575 506.409 561.771C507.576 562.992 506.408 566.156 505.188 568.258C502.899 572.203 499.762 573.55 497.117 575.471C494.242 577.558 490.604 581.299 487.946 588.522L466.676 653.483C470.759 639.935 481.335 602.322 484.704 587.911C485.676 583.751 486.537 579.434 484.308 575.745C482.161 572.194 477.41 569.654 473.047 564.22C472.538 563.586 471.142 561.801 471.713 560.61C472.184 559.625 473.57 559.943 474.024 559.03C474.633 557.806 472.634 556.24 471.11 553.108C470.036 550.898 469.744 549.033 469.493 547.429C469.417 546.945 468.33 539.708 470.431 538.873Z" fill="#F2F2F2"/>
<path d="M520.876 620.698C521.639 621.292 520.487 623.297 521.186 623.781C521.883 624.264 523.269 622.441 526.008 621.646C526.502 621.503 529.614 620.6 530.405 621.661C531.904 623.672 523.742 630.97 525.709 634.136C526.14 634.831 527.106 635.4 528.522 637.517C529.085 638.359 529.325 638.856 529.158 639.285C528.921 639.895 528.072 639.838 526.33 640.303C523.717 641.001 523.791 641.619 521.734 641.957C520.207 642.209 519.365 642 519.133 642.494C518.804 643.194 520.28 644.063 520.023 644.97C519.761 645.895 517.871 646.235 516.488 646.242C513.892 646.256 512.326 645.105 510.621 644.36C508.767 643.551 505.882 642.844 501.572 643.623L463.565 651.922C471.39 650.018 492.894 644.359 500.936 641.855C503.258 641.132 505.624 640.308 506.79 638.15C507.913 636.071 507.789 633.005 509.195 629.295C509.36 628.862 509.832 627.662 510.581 627.598C511.201 627.546 511.445 628.318 512.023 628.277C512.8 628.223 512.991 626.79 514.088 625.138C514.862 623.973 515.693 623.291 516.407 622.705C516.623 622.528 519.86 619.907 520.876 620.698Z" fill="#F2F2F2"/>
<path d="M502.965 612.332L506.604 608.571L506.634 608.096C506.774 605.9 507.365 604.107 508.392 602.764C508.555 602.551 508.729 602.346 508.906 602.137C509.609 601.309 510.483 600.28 510.887 598.605C511.11 597.671 511.474 595.387 510.003 594.568C509.61 594.344 509.216 594.3 508.865 594.333C508.872 594.262 508.878 594.191 508.885 594.114C508.958 593.171 508.841 592.651 508.727 592.151C508.64 591.766 508.55 591.37 508.535 590.584C508.528 590.239 508.539 589.949 508.548 589.706C508.574 588.967 508.566 588.057 507.774 587.46C506.905 586.852 505.93 587.207 505.284 587.441C504.133 587.859 503.441 588.267 502.983 588.538C502.816 588.638 502.627 588.749 502.556 588.773C501.979 588.962 500.069 586.893 499.346 586.118C497.726 584.372 496.325 582.861 494.757 583.522C493.634 583.994 493.131 585.375 493.223 587.741C493.253 588.478 493.389 589.126 493.537 589.665C493.109 589.614 492.639 589.68 492.208 590.019C491.187 590.823 491.272 592.486 492.458 594.963C492.751 595.58 493.148 596.407 493.936 597.267C494.307 597.671 494.679 597.987 495.001 598.251C494.861 598.448 494.746 598.689 494.698 598.991C494.555 599.881 495.034 600.727 496.159 601.482C497.383 602.329 498.525 602.853 499.531 603.316C500.409 603.721 501.164 604.073 501.643 604.497C502.52 605.295 502.663 606.602 502.759 608.228L502.965 612.332Z" fill="#F2F2F2"/>
<path d="M519.749 586.167L522.462 590.643L522.913 590.793C525.001 591.485 526.585 592.512 527.623 593.846C527.788 594.058 527.942 594.278 528.099 594.503C528.721 595.393 529.495 596.5 531.011 597.315C531.858 597.769 533.974 598.7 535.139 597.484C535.455 597.161 535.598 596.791 535.655 596.443C535.721 596.467 535.789 596.491 535.861 596.518C536.755 596.828 537.287 596.845 537.799 596.863C538.193 596.876 538.6 596.889 539.363 597.074C539.698 597.155 539.976 597.239 540.209 597.31C540.916 597.522 541.799 597.746 542.576 597.13C543.385 596.443 543.289 595.41 543.227 594.726C543.115 593.505 542.895 592.733 542.75 592.22C542.696 592.033 542.636 591.822 542.631 591.747C542.595 591.141 545.079 589.818 546.012 589.314C548.111 588.19 549.928 587.217 549.686 585.532C549.515 584.326 548.307 583.488 545.995 582.978C545.276 582.819 544.615 582.787 544.056 582.793C544.214 582.392 544.269 581.921 544.051 581.417C543.532 580.225 541.903 579.886 539.207 580.405C538.536 580.532 537.636 580.707 536.605 581.251C536.12 581.508 535.72 581.788 535.383 582.032C535.228 581.847 535.024 581.674 534.744 581.551C533.92 581.187 532.98 581.437 531.966 582.333C530.836 583.303 530.04 584.275 529.337 585.131C528.722 585.878 528.191 586.52 527.659 586.875C526.665 587.522 525.365 587.329 523.768 587.009L519.749 586.167Z" fill="#F2F2F2"/>
<path d="M531.25 575.691L534.889 571.93L534.919 571.455C535.059 569.259 535.65 567.466 536.677 566.123C536.84 565.91 537.014 565.705 537.191 565.496C537.894 564.668 538.768 563.639 539.172 561.964C539.396 561.03 539.759 558.746 538.288 557.927C537.895 557.703 537.501 557.659 537.15 557.692C537.157 557.621 537.163 557.55 537.17 557.473C537.243 556.53 537.126 556.01 537.012 555.51C536.925 555.126 536.835 554.729 536.82 553.943C536.813 553.598 536.824 553.309 536.833 553.065C536.859 552.326 536.852 551.416 536.059 550.819C535.19 550.211 534.215 550.566 533.57 550.8C532.418 551.218 531.727 551.626 531.268 551.897C531.101 551.997 530.912 552.108 530.841 552.132C530.264 552.321 528.354 550.252 527.631 549.477C526.011 547.731 524.61 546.22 523.042 546.881C521.92 547.353 521.416 548.734 521.509 551.101C521.538 551.837 521.674 552.485 521.822 553.025C521.394 552.973 520.924 553.039 520.493 553.378C519.472 554.183 519.558 555.845 520.743 558.322C521.036 558.939 521.433 559.766 522.221 560.626C522.592 561.03 522.964 561.346 523.286 561.611C523.146 561.807 523.031 562.048 522.983 562.351C522.84 563.24 523.32 564.086 524.444 564.841C525.668 565.688 526.81 566.212 527.816 566.675C528.694 567.081 529.449 567.432 529.928 567.856C530.805 568.654 530.948 569.961 531.044 571.587L531.25 575.691Z" fill="#F2F2F2"/>
<path d="M465.35 652.351L466.63 652.477L467.546 653.369C467.634 653.288 467.855 653.115 468.196 652.843C470.067 651.35 475.764 646.808 483.719 638.87C489.272 633.329 494.611 627.347 499.592 621.087C504.581 614.818 507.987 609.786 510.725 605.741C512.79 602.691 514.708 599.749 516.576 596.882C521.567 589.225 526.282 581.992 532.509 574.763C533.898 573.148 536.791 569.789 541.717 567.641C544.574 566.395 547.691 565.738 550.982 565.691L550.945 563.117C547.311 563.172 543.859 563.901 540.687 565.284C535.226 567.665 532.074 571.326 530.559 573.085C524.223 580.442 519.462 587.745 514.424 595.477C512.562 598.332 510.653 601.262 508.596 604.3C505.883 608.307 502.507 613.295 497.582 619.484C492.661 625.669 487.387 631.577 481.904 637.05C474.049 644.887 468.437 649.361 466.594 650.831C465.61 651.616 465.404 651.78 465.35 652.351Z" fill="#F2F2F2"/>
<path d="M552.217 571.809C552.301 571.873 552.387 571.936 552.477 571.996C554.281 573.242 556.687 573.444 559.627 572.598C561.007 572.199 562.16 571.417 564.458 569.857C564.813 569.617 566.591 568.383 568.641 566.377C569.98 565.067 570.429 564.432 570.556 563.665C570.7 562.811 570.503 561.986 570.134 561.247C570.31 561.072 570.444 560.855 570.518 560.585C570.827 559.469 569.819 558.868 569.278 558.536C569.002 558.373 568.654 558.171 568.328 557.891C567.814 557.452 567.649 557.071 567.398 556.496C567.159 555.946 566.86 555.262 566.214 554.511C564.944 553.026 563.343 552.475 562.816 552.293C560.049 551.326 557.643 552.199 554.857 553.211C554.3 553.415 552.324 554.198 550.225 555.744C548.711 556.859 548.277 557.54 548.035 558.108C547.535 559.273 547.696 560.287 548.249 562.675C548.824 565.173 549.114 566.425 549.487 567.338C550.359 569.462 550.906 570.795 552.217 571.809Z" fill="#F2F2F2"/>
<path d="M467.884 422.676L438.132 471.941L264.753 461.678L310.919 402.149L467.884 422.676Z" fill="#F2F2F2"/>
<path d="M416.078 653.093C417.087 653.093 417.967 652.347 418.108 651.319L469.916 272.775C470.07 271.652 469.285 270.616 468.162 270.463C467.04 270.301 466.005 271.094 465.851 272.218L414.042 650.762C413.888 651.885 414.674 652.92 415.797 653.074C415.891 653.087 415.985 653.093 416.078 653.093Z" fill="#F2F2F2"/>
<path d="M467.883 653.574C469.017 653.574 469.935 652.655 469.935 651.521V272.57C469.935 271.436 469.017 270.517 467.883 270.517C466.75 270.517 465.832 271.436 465.832 272.57V651.521C465.832 652.655 466.75 653.574 467.883 653.574Z" fill="#F2F2F2"/>
<path d="M207.816 652.068C208.688 652.068 209.497 651.506 209.772 650.63L332.369 260.797C332.709 259.715 332.108 258.563 331.027 258.222C329.947 257.883 328.794 258.484 328.454 259.564L205.858 649.397C205.518 650.479 206.119 651.632 207.2 651.972C207.405 652.036 207.612 652.068 207.816 652.068Z" fill="#F2F2F2"/>
<path d="M245.262 652.548C246.179 652.548 247.013 651.93 247.25 651.001L332.4 306.946C332.679 305.847 332.015 304.73 330.917 304.45C329.816 304.172 328.702 304.835 328.423 305.933L243.272 649.989C242.993 651.087 243.657 652.205 244.755 652.485C244.925 652.528 245.095 652.548 245.262 652.548Z" fill="#F2F2F2"/>
<path d="M467.884 278.607L325.795 276.421L299.634 425.755H465.832L467.884 278.607Z" fill="#F2F2F2"/>
<path d="M0 651.223H620V654H0V651.223Z" fill="#E6E6E6"/>
<path d="M359.784 115.437C355.479 117.858 348.531 108.285 346.957 112.967C345.382 117.65 349.196 136.544 351.163 141.075C352.141 143.327 353.524 145.387 354.483 147.648C355.443 149.908 355.957 152.507 355.109 154.811C353.633 158.821 348.762 160.453 346.346 163.977C343.533 168.083 344.669 173.612 345.984 178.412C347.118 182.55 348.326 186.725 350.508 190.418C352.69 194.111 355.98 197.327 360.09 198.549C365.324 200.105 370.918 198.256 375.963 196.168C380.814 194.161 385.613 191.886 389.739 188.64C393.865 185.393 397.307 181.083 398.749 176.034C400.558 169.7 399.047 162.768 395.915 156.974C392.782 151.179 388.149 146.352 383.395 141.795C375.387 134.119 366.866 126.98 357.907 120.442" fill="#2F2E41"/>
<path d="M333.064 342.819L218.18 386.354C218.18 386.354 208.607 395.932 206.866 412.475C205.125 429.019 172.923 523.055 172.923 523.055L200.774 533.504C200.774 533.504 247.771 461.235 245.16 431.631C245.16 431.631 250.382 417.672 252.993 417.25C255.604 416.829 294.769 396.803 320.009 399.415C345.248 402.027 411.393 409.863 413.134 379.388C414.875 348.914 399.61 348.914 399.61 348.914L333.064 342.819Z" fill="#2F2E41"/>
<path d="M179.015 515.219C179.015 515.219 171.182 512.607 165.961 517.831C160.739 523.055 160.739 527.409 160.739 527.409C160.739 527.409 119.833 526.538 118.092 531.762C116.352 536.986 122.444 557.883 137.24 558.754C152.035 559.625 202.514 570.073 202.514 560.495C202.514 550.918 201.644 529.15 198.163 529.15C194.681 529.15 179.015 515.219 179.015 515.219Z" fill="#2F2E41"/>
<path d="M323.141 370.511L239.409 460.444C239.409 460.444 235.065 473.273 240.827 488.877C246.59 504.481 259.345 603.06 259.345 603.06L288.941 600.089C288.941 600.089 299.087 514.471 283.642 489.085C283.642 489.085 282.144 474.256 284.299 472.721C286.453 471.187 312.703 435.879 336.489 427.039C360.275 418.198 423.049 395.919 411.119 367.824C399.19 339.729 385.503 346.493 385.503 346.493L323.141 370.511Z" fill="#2F2E41"/>
<path d="M261.338 593.335C261.338 593.335 253.159 594.463 250.789 601.461C248.42 608.458 250.347 612.362 250.347 612.362C250.347 612.362 213.286 629.704 214.038 635.16C214.79 640.615 229.503 656.652 243.154 650.877C256.805 645.103 306.689 632.106 302.45 623.518C298.21 614.931 287.794 595.8 284.672 597.342C281.551 598.885 261.338 593.335 261.338 593.335Z" fill="#2F2E41"/>
<path d="M399.644 185.656L371.794 203.941L340.462 251.83C340.462 251.83 333.499 302.331 336.11 304.943C338.721 307.555 337.851 310.167 337.851 315.391C337.851 320.616 331.457 321.171 335.524 325.682C339.591 330.193 343.004 331.133 336.946 332.84C330.888 334.547 323.85 332.881 327.369 338.068C330.888 343.254 328.277 344.995 330.018 346.737C331.758 348.478 402.219 422.926 415.274 394.193C428.329 365.459 429.235 255.313 429.235 255.313L419.831 219.431L399.644 185.656Z" fill="#CCCCCC"/>
<path d="M485.455 390.79C488.418 400.816 485.65 410.472 479.272 412.358C472.894 414.243 465.324 407.645 462.36 397.616C461.122 393.625 460.856 389.397 461.586 385.283L449.566 342.646L469.686 337.429L479.4 380.016C482.249 383.072 484.326 386.766 485.455 390.79Z" fill="#FFB6B6"/>
<path d="M370.866 246.207C370.866 246.207 403.304 221.433 415.653 237.057C428.001 252.68 473.235 322.041 473.235 322.041L476.234 348.474L450.58 354.137L409.115 293.011L370.866 246.207Z" fill="#CCCCCC"/>
<path d="M207.786 149.929C200.347 142.586 198.104 132.794 202.776 128.059C207.448 123.323 217.264 125.438 224.704 132.784C227.716 135.678 229.992 139.251 231.341 143.206L262.467 174.715L247.376 189.013L218.293 156.432C214.322 155.135 210.719 152.905 207.786 149.929Z" fill="#FFB6B6"/>
<path d="M377.963 221.07C377.963 221.07 361.539 258.446 343.18 250.742C324.82 243.038 251.705 204.2 251.705 204.2L236.307 182.512L256.027 165.146L321.863 198.599L377.963 221.07Z" fill="#CCCCCC"/>
<path d="M370.538 178.227C353.286 178.227 339.301 164.235 339.301 146.976C339.301 129.716 353.286 115.725 370.538 115.725C387.79 115.725 401.776 129.716 401.776 146.976C401.776 164.235 387.79 178.227 370.538 178.227Z" fill="#FFB6B6"/>
<path d="M405.752 195.919C398.461 206.324 394.732 219.18 395.324 231.873C387.058 227.867 381.479 219.403 379.58 210.412C377.681 201.421 379.129 191.981 382.181 183.313C382.211 183.227 382.242 183.14 382.273 183.054C386.906 170.044 382.601 155.504 371.411 147.417C363.862 141.962 357.316 135.118 352.292 127.273C349.455 122.845 347.044 117.289 349.163 112.476C351.116 108.04 356.16 105.967 360.802 104.58C371.402 101.412 382.664 99.6098 393.543 101.614C404.423 103.618 414.896 109.878 420.038 119.677C425.18 129.476 423.833 142.849 415.487 150.113C418.119 150.965 419.982 153.756 419.758 156.515C419.534 159.273 417.247 161.728 414.512 162.144C416.296 162.081 417.35 164.432 416.713 166.101C416.077 167.77 414.436 168.806 412.87 169.665C410.641 170.889 408.169 172.169 408.159 175.373C408.155 176.658 408.613 177.905 409.362 178.949C411.175 181.48 414.103 182.62 416.921 183.69C410.96 185.446 406.207 190.776 405.14 196.9" fill="#2F2E41"/>
<path d="M146.452 187.417C94.7248 187.417 52.7915 145.466 52.7915 93.7159C52.7915 41.9662 94.7248 0.0148315 146.452 0.0148315C198.179 0.0148315 240.113 41.9662 240.113 93.7159C240.113 145.466 198.179 187.417 146.452 187.417Z" fill="#6C63FF"/>
<path d="M151.307 94.16L160.249 147.22L150.954 148.788L142.011 95.728L151.307 94.16Z" fill="white"/>
<path d="M116.638 126.869L148.595 106.431L185.484 115.255L137.302 39.4263L116.638 126.869Z" fill="white"/>
</g>
<defs>
<clipPath id="clip0_1_13">
<rect width="620" height="654" fill="white" transform="matrix(-1 0 0 1 620 0)"/>
</clipPath>
</defs>
</svg>
